<svg version="1.0" xmlns="http://www.w3.org/2000/svg"
 width="500.000000pt" height="500.000000pt" viewBox="0 0 500.000000 500.000000"
 preserveAspectRatio="xMidYMid meet">

<g transform="translate(0.000000,500.000000) scale(0.100000,-0.100000)"
fill="#000000" stroke="none">
<path d="M2470 4060 c0 -5 -18 -19 -40 -30 -45 -23 -53 -35 -14 -19 15 5 29 8
31 6 2 -3 -22 -15 -54 -27 -78 -31 -85 -40 -32 -40 30 0 83 16 166 50 67 28
133 50 145 50 13 0 43 -11 67 -25 53 -31 61 -31 61 -1 0 21 -6 24 -69 35 -86
14 -261 15 -261 1z"/>
<path d="M2819 4021 c-1 -12 -2 -25 -3 -31 -1 -10 196 -131 203 -124 2 2 -9
18 -24 36 -15 18 -23 34 -18 35 5 2 34 -8 64 -21 49 -22 51 -24 22 -23 -18 1
-33 6 -33 11 0 5 -3 6 -6 3 -13 -13 62 -83 130 -123 39 -22 163 -94 276 -159
113 -65 216 -125 230 -133 22 -14 23 -14 10 0 -8 8 -85 57 -170 108 -281 169
-461 282 -456 287 6 6 371 -212 545 -325 62 -40 119 -71 127 -68 8 3 11 0 8
-9 -3 -8 -13 -11 -22 -8 -9 3 15 -14 53 -37 98 -60 115 -77 115 -118 0 -46 24
-37 28 11 5 53 -31 112 -83 137 -23 11 -47 20 -53 20 -7 0 -27 13 -45 29 -17
16 -107 67 -199 114 -175 89 -239 128 -220 135 6 2 60 -17 119 -42 59 -25 109
-44 111 -42 2 3 -47 41 -110 85 -168 120 -415 236 -565 266 -29 6 -33 4 -34
-14z"/>
<path d="M2600 4010 c-586 -238 -595 -242 -651 -314 l-23 -30 29 17 c38 20
183 77 198 77 7 0 52 -30 101 -67 l89 -67 -23 -15 c-26 -18 -408 -191 -428
-195 -7 -1 -17 -7 -23 -13 -15 -15 -88 -137 -84 -141 1 -1 14 3 28 9 24 11 31
8 71 -24 52 -43 111 -115 102 -124 -8 -9 -58 20 -112 63 l-41 33 -59 -24 c-32
-14 -73 -27 -90 -31 -31 -6 -32 -8 -53 -107 l-22 -101 58 -53 c32 -29 65 -55
74 -58 8 -3 115 40 236 95 121 55 228 100 238 100 10 0 72 -41 138 -91 l119
-92 31 31 c17 17 29 33 26 35 -2 2 -43 32 -91 67 -49 35 -88 70 -88 77 0 8 11
18 24 23 21 8 112 48 281 125 123 56 144 65 153 65 5 0 57 -36 115 -79 l107
-79 40 15 c22 9 39 20 38 24 -2 4 -50 42 -108 84 -59 44 -105 84 -105 93 0 12
67 47 235 124 129 59 246 107 260 107 14 1 57 -17 95 -40 39 -22 88 -51 110
-64 121 -68 165 -97 165 -109 0 -7 -30 -26 -66 -42 l-67 -29 27 -32 c26 -31
29 -32 49 -18 12 8 32 15 44 15 13 0 41 6 63 12 37 12 40 16 40 49 0 19 -6 42
-12 51 -7 8 -60 42 -118 75 -58 33 -313 180 -567 326 -268 155 -471 267 -485
266 -13 -1 -43 -9 -68 -19z m100 -55 c7 -8 39 -39 72 -67 56 -48 59 -49 52
-23 -4 18 -3 26 3 22 6 -4 14 -22 17 -40 6 -31 21 -50 69 -87 14 -10 17 -11
15 0 -2 7 2 14 9 17 8 3 10 -6 8 -26 -3 -25 2 -35 25 -53 16 -11 32 -28 35
-37 3 -9 -13 2 -37 24 -94 88 -112 101 -104 80 8 -21 25 -107 32 -160 4 -29 4
-29 -5 -5 -6 14 -15 44 -21 68 -6 24 -17 42 -25 42 -8 0 -17 5 -21 12 -5 7 -2
9 8 5 13 -4 15 2 14 33 -3 44 -32 84 -55 75 -8 -3 -12 -3 -8 1 10 11 -23 44
-38 38 -7 -3 -33 4 -58 16 -41 19 -48 20 -74 7 -57 -29 -134 -50 -145 -39 -11
11 146 92 180 92 10 0 38 -17 63 -37 41 -34 41 -33 -11 21 -30 32 -46 54 -34
48 11 -6 27 -18 34 -27z m198 -230 c-3 -3 -9 2 -12 12 -6 14 -5 15 5 6 7 -7
10 -15 7 -18z m124 0 c20 -17 24 -25 14 -25 -9 0 -16 5 -16 10 0 6 -3 9 -7 9
-21 -3 -33 2 -27 12 4 8 -1 9 -16 4 -15 -5 -20 -4 -16 4 11 18 36 13 68 -14z
m-208 -13 c3 -5 -1 -9 -9 -9 -8 0 -12 4 -9 9 3 4 7 8 9 8 2 0 6 -4 9 -8z
m-274 -224 c52 -39 112 -82 133 -96 21 -14 37 -32 35 -40 -3 -16 -403 -201
-453 -209 -26 -4 -41 3 -99 49 -139 108 -187 150 -183 161 2 6 32 23 68 37 72
30 202 89 299 137 36 17 74 32 85 32 11 0 63 -31 115 -71z m1268 -203 c-3 -3
-9 2 -12 12 -6 14 -5 15 5 6 7 -7 10 -15 7 -18z m-1613 -145 c3 -6 -1 -7 -9
-4 -18 7 -21 14 -7 14 6 0 13 -4 16 -10z"/>
<path d="M1519 3639 c-478 -190 -527 -212 -532 -234 -2 -14 -1 -25 4 -25 4 0
119 45 256 101 136 55 343 139 458 185 133 54 235 102 278 131 57 39 76 55 65
52 -2 0 -240 -94 -529 -210z"/>
<path d="M3530 3715 c13 -14 26 -23 28 -20 7 7 -29 45 -41 45 -6 0 0 -11 13
-25z"/>
<path d="M1670 3633 c-113 -46 -311 -127 -440 -179 -129 -53 -239 -99 -243
-103 -4 -4 4 -95 19 -202 l27 -194 203 -204 c112 -112 204 -206 204 -208 0 -3
-24 -33 -54 -66 -75 -87 -82 -103 -54 -120 90 -56 204 -107 238 -107 l37 0
-24 88 c-29 109 -53 270 -53 355 0 81 -10 134 -21 115 -6 -9 -8 -6 -7 9 1 11
7 19 14 16 7 -2 14 14 18 43 13 100 11 106 -55 165 -136 120 -119 109 -151 93
-28 -15 -29 -14 -148 83 -66 53 -120 104 -120 113 0 11 69 44 243 113 133 54
249 98 258 97 8 0 40 -18 69 -40 29 -22 57 -40 62 -40 4 0 15 14 24 32 16 31
16 32 -10 51 -14 10 -26 22 -26 26 0 4 25 16 55 26 38 13 69 34 102 67 26 26
45 49 42 51 -2 2 -96 -34 -209 -80z m-517 -480 c107 -86 102 -76 116 -203 7
-63 15 -123 18 -132 9 -35 -19 -17 -104 65 l-86 84 -18 99 c-21 116 -23 144
-8 144 5 0 42 -26 82 -57z m197 -757 c0 -2 -8 -10 -17 -17 -16 -13 -17 -12 -4
4 13 16 21 21 21 13z"/>
<path d="M1765 3446 l-19 -35 27 -21 c15 -12 27 -26 27 -31 0 -6 -24 -21 -53
-34 -46 -20 -55 -28 -65 -63 -18 -59 -16 -62 31 -39 48 25 48 25 104 125 l42
75 -36 29 c-20 15 -37 28 -38 28 -1 0 -10 -16 -20 -34z"/>
<path d="M3575 3264 c-135 -64 -379 -163 -388 -158 -7 4 -22 16 -33 26 -22 19
-22 19 -65 -3 -24 -12 -38 -24 -31 -26 31 -11 5 -34 -80 -71 -51 -22 -156 -68
-233 -102 -139 -61 -140 -61 -172 -45 -30 16 -32 16 -62 -6 l-31 -23 20 -21
c27 -29 26 -30 -155 -108 -82 -35 -198 -86 -257 -112 l-108 -47 -127 103
c-172 138 -160 125 -140 147 17 18 15 21 -39 61 -44 33 -59 39 -65 29 -14 -22
-10 -306 6 -413 8 -54 25 -134 36 -177 l21 -78 125 0 c115 0 125 1 118 18 -4
9 -14 60 -23 112 l-15 95 -64 67 c-36 37 -62 72 -58 78 9 14 66 -19 130 -74
l50 -44 0 -125 0 -125 44 -6 c24 -3 46 -4 49 -2 2 3 -3 69 -12 148 -15 131
-15 144 -1 155 31 22 526 234 535 228 5 -3 11 -18 14 -33 5 -26 56 -445 56
-463 0 -5 20 -9 45 -9 25 0 45 2 45 4 0 1 -13 110 -30 241 -31 243 -33 272
-25 264 3 -4 38 -258 60 -438 3 -30 8 -58 10 -61 8 -13 569 51 662 76 9 2 8
15 -2 52 -12 49 -12 50 26 119 37 67 42 72 110 102 39 18 72 31 74 29 8 -10
54 -231 50 -238 -4 -6 3 -10 14 -10 25 0 23 -4 108 190 40 91 80 170 89 175
60 37 57 20 33 235 -13 107 -24 197 -25 199 -2 2 -15 -6 -30 -18 -15 -11 -33
-21 -41 -21 -9 0 -12 -8 -9 -22 3 -13 8 -40 11 -61 4 -23 10 -35 17 -31 7 4 7
-1 2 -17 -8 -25 -9 -30 -5 -119 1 -30 1 -66 -1 -80 -2 -14 2 -24 7 -23 6 1 11
-7 11 -18 0 -18 -2 -17 -25 5 -23 23 -25 24 -57 8 -19 -8 -36 -23 -39 -33 -3
-9 -13 -23 -22 -31 -15 -12 -15 -11 -5 9 7 12 12 24 12 27 0 3 -33 -10 -72
-29 -262 -121 -279 -127 -291 -107 -3 4 -15 72 -27 152 -11 80 -23 154 -25
165 -2 11 -4 23 -4 28 -2 17 0 17 -355 -137 -71 -31 -131 -55 -133 -53 -4 5
111 61 294 142 84 37 165 79 180 93 25 23 232 122 256 122 6 0 18 6 26 14 9 7
39 21 66 31 28 10 52 20 54 21 5 4 -39 64 -47 63 -4 0 -20 -7 -37 -15z m-441
-569 c0 -24 3 -42 8 -39 4 3 8 -3 8 -13 0 -10 3 -29 6 -43 l6 -25 -22 25 c-19
21 -21 32 -16 73 4 29 3 46 -2 43 -5 -3 -9 6 -9 20 0 19 2 23 11 14 6 -6 11
-31 10 -55z m611 -64 c-25 -56 -45 -105 -45 -110 0 -5 -6 -14 -14 -20 -11 -9
-17 4 -35 75 -12 48 -20 88 -18 90 7 7 152 72 155 69 2 -1 -17 -48 -43 -104z
m-635 -51 c0 -5 -2 -10 -4 -10 -3 0 -8 5 -11 10 -3 6 -1 10 4 10 6 0 11 -4 11
-10z m-54 -37 c-4 -4 -12 -1 -19 7 -9 10 -9 11 1 6 7 -4 12 -2 13 6 0 11 2 11
6 0 3 -7 2 -16 -1 -19z"/>
<path d="M1545 3234 c-27 -13 -79 -37 -114 -53 l-64 -28 57 -44 c32 -24 62
-43 67 -41 6 1 8 -2 5 -7 -8 -13 21 -34 35 -25 7 4 9 3 5 -4 -3 -6 -2 -13 3
-16 5 -3 12 15 16 41 6 40 34 143 52 189 7 19 -4 17 -62 -12z"/>
<path d="M3809 3239 c-27 -15 -36 -25 -32 -38 4 -16 10 -18 34 -11 42 12 49
19 49 46 0 28 -4 29 -51 3z"/>
<path d="M3887 3237 c-6 -17 40 -428 49 -436 4 -3 9 0 11 7 4 10 8 10 21 0 9
-7 13 -8 9 -2 -7 12 -52 284 -63 382 -6 60 -16 77 -27 49z"/>
<path d="M986 3070 c3 -41 10 -82 15 -90 11 -17 2 76 -12 131 -6 24 -7 12 -3
-41z"/>
<path d="M1011 2950 c0 -17 15 -39 44 -60 13 -9 11 -4 -6 15 -15 17 -29 37
-32 45 -5 13 -5 13 -6 0z"/>
<path d="M1373 2519 c-29 -19 -43 -39 -27 -39 14 0 45 22 54 40 13 25 13 25
-27 -1z"/>
<path d="M3746 2495 c-35 -79 -37 -87 -24 -83 14 5 50 97 44 113 -2 6 -11 -8
-20 -30z"/>
<path d="M3674 2348 l-61 -19 -58 -135 c-32 -74 -63 -133 -68 -131 -6 2 -24
52 -41 113 -27 94 -34 109 -51 106 -11 -1 -94 -13 -185 -27 -150 -23 -431 -53
-664 -71 -84 -6 -101 -12 -274 -89 -102 -46 -191 -81 -198 -78 -7 3 -16 26
-19 51 -15 110 -7 102 -94 102 -43 0 -120 2 -172 4 l-94 5 73 -10 c49 -8 75
-16 81 -27 5 -10 21 -91 37 -181 22 -131 33 -170 51 -190 12 -14 22 -21 23
-16 0 6 -13 82 -29 170 -16 88 -28 161 -27 162 1 2 34 -27 73 -62 39 -36 75
-65 80 -65 5 0 89 36 187 80 98 44 191 80 207 80 31 0 59 -23 59 -48 0 -9 22
-116 49 -237 42 -186 47 -222 36 -234 -12 -12 -40 -12 -197 2 -245 23 -231 24
-251 -18 l-17 -35 57 -68 c31 -37 57 -68 58 -70 1 -1 69 28 151 64 157 70 189
77 306 58 42 -6 37 10 63 -214 8 -74 17 -152 20 -172 3 -23 0 -41 -8 -50 -8
-7 -93 -49 -190 -93 -134 -60 -177 -84 -177 -97 0 -10 4 -18 8 -18 4 0 95 40
202 89 107 48 353 159 545 246 193 87 442 200 555 251 l205 94 25 50 c34 70
20 77 -84 38 -45 -16 -101 -36 -126 -44 -45 -14 -72 -6 -48 14 19 15 175 92
187 92 22 0 10 17 -24 36 -19 10 -35 22 -35 26 0 12 10 10 46 -12 l32 -21 -5
114 c-4 78 -2 116 5 121 14 8 27 -38 50 -180 10 -59 22 -109 27 -111 6 -1 27
30 47 70 l37 72 -20 180 c-12 99 -25 185 -30 191 -9 11 -117 75 -234 139 l-40
22 -61 -19z m-284 -245 c36 -98 37 -126 0 -198 -18 -35 -43 -74 -56 -86 l-24
-22 0 22 c0 13 13 56 30 97 24 60 28 79 20 100 -14 37 -30 155 -23 167 9 14
30 -18 53 -80z m-343 -69 c51 -5 52 -6 58 -42 3 -20 13 -61 21 -91 32 -109 65
-287 59 -318 -6 -31 -25 -47 -25 -20 0 9 -62 18 -230 33 -126 11 -233 23 -236
27 -6 6 -93 401 -94 424 0 6 7 13 17 15 16 3 328 -17 430 -28z m299 -442 c-3
-5 2 -50 10 -101 8 -50 12 -96 9 -102 -4 -5 -42 -26 -85 -45 -45 -21 -77 -41
-73 -47 4 -6 1 -7 -7 -2 -15 9 -152 -54 -144 -67 3 -4 -1 -5 -9 -3 -7 3 -44
-8 -81 -25 -37 -16 -74 -30 -82 -30 -17 0 -20 14 -39 182 -8 75 -18 143 -21
152 -4 10 -1 16 8 16 24 0 372 -30 410 -35 37 -5 38 -5 68 55 17 33 33 60 36
60 3 0 3 -4 0 -8z m-519 -364 c-3 -7 -5 -2 -5 12 0 14 2 19 5 13 2 -7 2 -19 0
-25z"/>
<path d="M1284 2324 c-14 -20 -15 -27 -4 -34 12 -7 169 -31 201 -30 15 1 -156
90 -171 90 -5 0 -17 -12 -26 -26z"/>
<path d="M1187 2243 c-10 -9 -9 -53 1 -53 8 0 32 43 32 55 0 7 -26 6 -33 -2z"/>
<path d="M1212 2201 l-22 -38 41 -224 c23 -123 46 -235 53 -249 6 -15 21 -26
36 -28 15 -3 80 -59 178 -155 84 -84 251 -247 370 -363 l217 -212 6 41 c6 41
6 41 -88 133 -51 50 -93 98 -94 105 0 8 -2 25 -5 39 -11 74 -22 256 -15 263 5
4 38 -18 76 -50 74 -63 73 -63 110 8 13 24 11 28 -27 75 l-42 49 45 -42 c43
-42 45 -42 57 -22 12 18 11 25 -10 47 l-23 27 23 -20 c23 -19 24 -19 38 0 26
35 18 46 -33 45 -75 -1 -113 10 -123 34 -4 11 -18 30 -30 41 l-22 20 2 -25 c4
-47 1 -50 -42 -50 -91 1 -559 47 -568 56 -10 10 -90 419 -90 460 0 35 30 38
222 24 93 -7 171 -10 174 -8 2 3 -49 10 -113 17 -65 7 -152 19 -193 27 -41 8
-78 14 -81 14 -3 0 -15 -17 -27 -39z m260 -573 c-6 -6 -8 -17 -4 -23 4 -6 0
-4 -8 5 -9 10 -22 19 -30 23 -8 3 1 6 20 6 26 1 31 -2 22 -11z m266 -36 c2
-12 -1 -22 -7 -22 -6 0 -7 7 -4 17 4 10 2 14 -4 10 -5 -3 -10 1 -10 9 0 22 22
10 25 -14z m132 -6 c0 -3 -4 -8 -10 -11 -5 -3 -10 -1 -10 4 0 6 5 11 10 11 6
0 10 -2 10 -4z m-134 -52 c-4 -9 -9 -15 -11 -12 -3 3 -3 13 1 22 4 9 9 15 11
12 3 -3 3 -13 -1 -22z"/>
<path d="M4070 2220 c13 -11 25 -20 28 -20 3 0 -3 9 -13 20 -10 11 -23 20 -28
20 -6 0 0 -9 13 -20z"/>
<path d="M4096 2165 c4 -8 8 -15 10 -15 2 0 4 7 4 15 0 8 -4 15 -10 15 -5 0
-7 -7 -4 -15z"/>
<path d="M4258 2123 c7 -3 16 -2 19 1 4 3 -2 6 -13 5 -11 0 -14 -3 -6 -6z"/>
<path d="M4107 1865 c13 -48 7 -156 -10 -205 -10 -26 -13 -48 -7 -54 10 -10
56 76 65 125 8 44 -8 109 -35 141 l-20 23 7 -30z"/>
<path d="M4027 1745 c-15 -31 -27 -60 -27 -65 0 -5 14 -19 31 -31 26 -18 33
-19 40 -8 9 15 1 139 -10 151 -4 5 -19 -17 -34 -47z"/>
<path d="M3966 1624 c-9 -20 -16 -38 -14 -39 2 -1 23 7 48 18 l44 20 -23 18
c-31 26 -35 25 -55 -17z"/>
<path d="M3990 1579 c-35 -17 -67 -33 -70 -37 -3 -4 -12 -8 -20 -8 -13 -2
-705 -313 -1322 -596 -154 -70 -200 -99 -184 -115 9 -9 243 21 369 48 488 106
988 354 1245 618 39 41 70 76 68 78 -2 2 -248 -118 -546 -267 -298 -149 -544
-269 -546 -267 -4 4 586 308 914 471 94 48 172 91 172 96 0 14 -7 12 -80 -21z"/>
<path d="M1408 1555 c6 -11 37 -45 69 -75 33 -30 64 -62 69 -70 14 -23 73 -74
79 -69 2 3 -48 57 -111 119 -64 63 -112 106 -106 95z"/>
<path d="M2115 1520 c-11 -18 4 -45 48 -88 30 -29 46 -39 56 -33 11 7 4 22
-35 70 -50 62 -58 68 -69 51z"/>
<path d="M2072 1443 l-22 -48 26 -21 c24 -20 28 -34 46 -173 15 -110 25 -151
34 -151 17 0 18 -17 2 -22 -7 -3 -13 -13 -13 -24 0 -11 -6 -18 -14 -16 -8 2
-18 -3 -22 -10 -33 -51 35 -136 118 -148 41 -7 57 -4 111 20 46 22 62 34 62
49 0 19 -3 19 -66 -9 -79 -36 -92 -37 -103 -8 -8 22 -8 22 -25 -7 -17 -29 -15
-17 7 36 7 18 5 63 -7 160 -36 279 -37 302 -24 310 9 6 -1 22 -37 59 l-51 51
-22 -48z"/>
<path d="M1637 1318 c57 -79 87 -108 109 -108 13 0 24 -4 24 -10 0 -5 -5 -10
-12 -10 -9 0 -9 -3 0 -12 10 -10 15 -10 22 2 7 11 -6 31 -58 82 -37 37 -73 68
-81 68 -9 0 -10 -4 -4 -12z"/>
<path d="M1790 1164 c0 -23 41 -57 53 -45 11 11 -5 36 -35 52 -14 8 -18 6 -18
-7z"/>
<path d="M1760 1135 c0 -2 10 -10 23 -16 20 -11 21 -11 8 4 -13 16 -31 23 -31
12z"/>
<path d="M1867 1093 c11 -33 25 -45 34 -31 5 7 1 20 -8 30 -21 23 -34 23 -26
1z"/>
<path d="M1920 1046 c0 -9 5 -16 10 -16 6 0 10 4 10 9 0 6 -4 13 -10 16 -5 3
-10 -1 -10 -9z"/>
<path d="M1940 1013 c0 -4 21 -30 48 -58 30 -32 35 -39 12 -19 -67 58 -77 63
-50 24 13 -19 31 -41 40 -48 21 -18 113 -62 118 -57 8 8 -26 51 -85 108 -52
51 -83 69 -83 50z"/>
<path d="M2350 835 c-24 -14 -24 -14 -3 -15 12 0 25 5 28 11 11 17 2 18 -25 4z"/>
</g>
</svg>
